<?xml version="1.0" encoding="utf-8"?>
<!-- Generator: Adobe Illustrator 26.3.1, SVG Export Plug-In . SVG Version: 6.00 Build 0)  -->
<svg version="1.1" id="Layer_1" xmlns="http://www.w3.org/2000/svg" xmlns:xlink="http://www.w3.org/1999/xlink" x="0px" y="0px"
	 viewBox="0 0 355 72" style="enable-background:new 0 0 355 72;" xml:space="preserve">
<style type="text/css">
	.st0{fill-rule:evenodd;clip-rule:evenodd;fill:#2F3C40;}
	.st1{fill-rule:evenodd;clip-rule:evenodd;fill:#50B4E5;}
	.st2{fill-rule:evenodd;clip-rule:evenodd;fill:#FFFFFF;filter:url(#Adobe_OpacityMaskFilter);}
	.st3{mask:url(#mask0_0_190_00000039849111104434987640000005045047192989355950_);}
	.st4{fill-rule:evenodd;clip-rule:evenodd;fill:#FFFFFF;}
	.st5{fill:#FFFFFF;}
</style>
<path class="st0" d="M289,47.2c1.1,1.1,2.5,1.6,4.1,1.6c1.7,0,3-0.5,4.1-1.6c1.1-1.1,1.6-2.5,1.6-4.3c0-1.7-0.5-3.2-1.6-4.3
	c-1.1-1.1-2.4-1.6-4.1-1.6c-1.7,0-3,0.5-4.1,1.6c-1.1,1.1-1.6,2.5-1.6,4.3C287.4,44.7,287.9,46.1,289,47.2z M299.9,49.6
	c-1.8,1.8-4.1,2.7-6.8,2.7s-5-0.9-6.8-2.7c-1.8-1.8-2.7-4-2.7-6.6c0-2.6,0.9-4.8,2.7-6.6c1.8-1.8,4.1-2.7,6.8-2.7s5,0.9,6.8,2.7
	c1.8,1.8,2.7,4,2.7,6.6C302.6,45.6,301.7,47.8,299.9,49.6z M315.4,52H311l-6.3-18.1h3.9l4.5,13.7l4.5-13.7h3.9l4.5,13.7l4.5-13.7
	h3.9L328.3,52H324l-4.3-12.4L315.4,52z M341.7,42.2V52h-3.8V33.9h3.8v3.3c0.6-1.1,1.5-2,2.5-2.6c1.1-0.6,2.2-1,3.5-1
	c2,0,3.7,0.6,4.9,1.9s1.9,3,1.9,5.4V52h-3.8v-9.9c0-3.3-1.4-5-4.1-5c-1.3,0-2.5,0.4-3.4,1.3C342.2,39.3,341.7,40.5,341.7,42.2z"/>
<path class="st0" d="M96.9,25.6c4.8,0,8.5,1.2,11.1,3.5c2.6,2.3,3.9,5.6,3.9,9.8c0,4.2-1.3,7.5-3.8,9.9c-2.5,2.4-6.3,3.6-11.5,3.6
	h-8.9V25.6H96.9z M107.3,39c0-6.1-3.5-9.2-10.6-9.2h-4.5v18.4h5c3.3,0,5.7-0.8,7.5-2.3C106.5,44.3,107.3,42,107.3,39z M133.6,45
	h-14.2c0.1,1.3,0.7,2.4,1.8,3.2c1.1,0.8,2.4,1.2,3.8,1.2c2.3,0,4-0.7,5.2-2.1l2.2,2.4c-2,2-4.5,3-7.6,3c-2.5,0-4.7-0.8-6.5-2.5
	c-1.8-1.7-2.7-4-2.7-6.8c0-2.8,0.9-5.1,2.7-6.8c1.8-1.7,3.9-2.5,6.4-2.5c2.5,0,4.6,0.7,6.3,2.2c1.7,1.5,2.6,3.5,2.6,6.1V45z
	 M119.4,42h10.4c0-1.5-0.5-2.7-1.4-3.5c-1-0.8-2.1-1.2-3.5-1.2c-1.4,0-2.6,0.4-3.8,1.3C120,39.4,119.4,40.6,119.4,42z M142.6,52.4
	l-7.3-18.1h3.9l5.5,13.7l5.5-13.7h3.9l-7.3,18.1H142.6z M174.1,45h-14.2c0.1,1.3,0.7,2.4,1.8,3.2c1.1,0.8,2.4,1.2,3.8,1.2
	c2.3,0,4-0.7,5.2-2.1l2.2,2.4c-1.9,2-4.5,3-7.6,3c-2.5,0-4.7-0.8-6.5-2.5c-1.8-1.7-2.7-4-2.7-6.8c0-2.8,0.9-5.1,2.7-6.8
	c1.8-1.7,3.9-2.5,6.4-2.5c2.5,0,4.6,0.7,6.3,2.2c1.7,1.5,2.6,3.5,2.6,6.1V45z M159.9,42h10.4c0-1.5-0.5-2.7-1.4-3.5
	c-1-0.8-2.1-1.2-3.5-1.2c-1.4,0-2.6,0.4-3.8,1.3C160.4,39.4,159.9,40.6,159.9,42z M182.1,52.4h-3.8V27.2h3.8V52.4z M191.8,47.6
	c1.1,1.1,2.5,1.6,4.1,1.6c1.7,0,3-0.5,4.1-1.6c1.1-1.1,1.6-2.5,1.6-4.3c0-1.7-0.5-3.2-1.6-4.3c-1.1-1.1-2.4-1.6-4.1-1.6
	c-1.7,0-3,0.5-4.1,1.6c-1.1,1.1-1.6,2.5-1.6,4.3C190.2,45.1,190.7,46.5,191.8,47.6z M202.7,50c-1.8,1.8-4.1,2.7-6.8,2.7
	s-5-0.9-6.8-2.7c-1.8-1.8-2.7-4-2.7-6.6c0-2.6,0.9-4.8,2.7-6.6c1.8-1.8,4.1-2.7,6.8-2.7s5,0.9,6.8,2.7c1.8,1.8,2.7,4,2.7,6.6
	C205.4,46,204.5,48.2,202.7,50z M219.4,34c2.4,0,4.5,0.8,6.2,2.5c1.7,1.7,2.6,3.9,2.6,6.7c0,2.8-0.9,5.1-2.6,6.8
	c-1.7,1.7-3.7,2.6-6,2.6s-4.3-1-6.1-3V59h-3.8V34.3h3.8v3.2C215,35.2,217,34,219.4,34z M213.5,43.4c0,1.7,0.5,3.1,1.6,4.2
	c1,1.1,2.3,1.6,3.8,1.6s2.8-0.5,3.9-1.6c1.1-1.1,1.7-2.5,1.7-4.2c0-1.7-0.5-3.2-1.6-4.3c-1.1-1.1-2.4-1.7-3.9-1.7
	c-1.5,0-2.8,0.6-3.8,1.7C214,40.2,213.5,41.7,213.5,43.4z M249.4,45h-14.2c0.1,1.3,0.7,2.4,1.8,3.2c1.1,0.8,2.4,1.2,3.8,1.2
	c2.3,0,4-0.7,5.2-2.1l2.2,2.4c-1.9,2-4.5,3-7.6,3c-2.5,0-4.7-0.8-6.5-2.5c-1.8-1.7-2.7-4-2.7-6.8c0-2.8,0.9-5.1,2.7-6.8
	c1.8-1.7,3.9-2.5,6.4-2.5c2.5,0,4.6,0.7,6.3,2.2c1.7,1.5,2.6,3.5,2.6,6.1V45z M235.2,42h10.4c0-1.5-0.5-2.7-1.4-3.5
	c-1-0.8-2.1-1.2-3.5-1.2s-2.6,0.4-3.8,1.3C235.8,39.4,235.2,40.6,235.2,42z M263.1,37.9c-1.9,0-3.3,0.6-4.2,1.8
	c-1,1.2-1.4,2.9-1.4,4.9v7.8h-3.8V34.3h3.8v3.6c0.6-1.1,1.4-2.1,2.5-2.8c1.1-0.7,2.2-1.1,3.3-1.1l0,3.8H263.1z M278.2,29.7v22.7
	h-4.5V29.7h-8.1v-4.1h20.8v4.1H278.2z"/>
<path class="st1" d="M36,72c19.9,0,36-16.1,36-36S55.9,0,36,0S0,16.1,0,36S16.1,72,36,72z"/>
<defs>
	<filter id="Adobe_OpacityMaskFilter" filterUnits="userSpaceOnUse" x="19.1" y="16" width="33.5" height="40.3">
		<feColorMatrix  type="matrix" values="1 0 0 0 0  0 1 0 0 0  0 0 1 0 0  0 0 0 1 0"/>
	</filter>
</defs>
<mask maskUnits="userSpaceOnUse" x="19.1" y="16" width="33.5" height="40.3" id="mask0_0_190_00000039849111104434987640000005045047192989355950_">
	<path class="st2" d="M36,72c19.9,0,36-16.1,36-36S55.9,0,36,0S0,16.1,0,36S16.1,72,36,72z"/>
</mask>
<g class="st3">
	<path class="st4" d="M28.4,29.8c0-0.5,0.4-0.9,0.9-0.9h3c0.5,0,0.9,0.4,0.9,0.9v25.7c0,0.5-0.4,0.9-0.9,0.9h-3
		c-0.5,0-0.9-0.4-0.9-0.9V29.8z"/>
	<path class="st5" d="M22.8,35.3h26c0.5,0,0.9,0.4,0.9,0.9v2.9c0,0.5-0.4,0.9-0.9,0.9h-26c-0.5,0-0.9-0.4-0.9-0.9v-2.9
		C21.9,35.7,22.3,35.3,22.8,35.3z"/>
	<path class="st5" d="M22.8,45.3h26c0.5,0,0.9,0.4,0.9,0.9v2.9c0,0.5-0.4,0.9-0.9,0.9h-26c-0.5,0-0.9-0.4-0.9-0.9v-2.9
		C21.9,45.6,22.3,45.3,22.8,45.3z"/>
	<path class="st4" d="M38.4,29.8c0-0.5,0.4-0.9,0.9-0.9h3c0.5,0,0.9,0.4,0.9,0.9v25.7c0,0.5-0.4,0.9-0.9,0.9h-3
		c-0.5,0-0.9-0.4-0.9-0.9V29.8z"/>
	<path class="st4" d="M21.7,29.9c0.3,0.3,0.7,0.4,1.1,0.1l12.5-8.1c0.3-0.2,0.6-0.2,0.9,0L49,30c0.3,0.2,0.8,0.2,1.1-0.1l2.3-2.3
		c0.4-0.4,0.3-1-0.1-1.3l-16-10.2c-0.3-0.2-0.6-0.2-0.9,0L19.5,26c-0.5,0.3-0.5,0.9-0.2,1.3L21.7,29.9z"/>
</g>
</svg>
